<?xml version="1.0" encoding="utf-8" standalone="no"?>
<!DOCTYPE svg PUBLIC "-//W3C//DTD SVG 1.1//EN"
  "http://www.w3.org/Graphics/SVG/1.1/DTD/svg11.dtd">
<svg xmlns:xlink="http://www.w3.org/1999/xlink" width="832.32pt" height="434.88pt" viewBox="0 0 832.32 434.88" xmlns="http://www.w3.org/2000/svg" version="1.1">
 <metadata>
  <rdf:RDF xmlns:dc="http://purl.org/dc/elements/1.1/" xmlns:cc="http://creativecommons.org/ns#" xmlns:rdf="http://www.w3.org/1999/02/22-rdf-syntax-ns#">
   <cc:Work>
    <dc:type rdf:resource="http://purl.org/dc/dcmitype/StillImage"/>
    <dc:date>2026-09-20T11:13:20.261653</dc:date>
    <dc:format>image/svg+xml</dc:format>
    <dc:creator>
     <cc:Agent>
      <dc:title>Matplotlib v3.11.1, https://matplotlib.org/</dc:title>
     </cc:Agent>
    </dc:creator>
   </cc:Work>
  </rdf:RDF>
 </metadata>
 <defs>
  <style type="text/css">*{stroke-linejoin: round; stroke-linecap: butt}</style>
 </defs>
 <g id="figure_1">
  <g id="patch_1">
   <path d="M 0 434.88 
L 832.32 434.88 
L 832.32 -0 
L 0 -0 
z
" style="fill: #ffffff"/>
  </g>
  <g id="axes_1">
   <g id="patch_2">
    <path d="M 449.28 66.24 
Q 449.28 76.32 449.28 85.281966 
" clip-path="url(#pe7f0bcd85e)" style="fill: none; stroke: #8c959f; stroke-linecap: round"/>
    <path d="M 451.28 81.281966 
L 449.28 85.281966 
L 447.28 81.281966 
z
" clip-path="url(#pe7f0bcd85e)" style="fill: #8c959f; stroke: #8c959f; stroke-linecap: round"/>
   </g>
   <g id="line2d_1">
    <path d="M 537.12 87.84 
L 537.12 73.44 
" clip-path="url(#pe7f0bcd85e)" style="fill: none; stroke-dasharray: 3,2; stroke-dashoffset: 0; stroke: #8c959f"/>
   </g>
   <g id="line2d_2">
    <path d="M 537.12 73.44 
L 468 73.44 
" clip-path="url(#pe7f0bcd85e)" style="fill: none; stroke-dasharray: 3,2; stroke-dashoffset: 0; stroke: #8c959f"/>
   </g>
   <g id="patch_3">
    <path d="M 468 73.44 
Q 468 80.64 468 86.721966 
" clip-path="url(#pe7f0bcd85e)" style="fill: none; stroke-dasharray: 3,2; stroke-dashoffset: 0; stroke: #8c959f; stroke-linecap: round"/>
    <path d="M 470 82.721966 
L 468 86.721966 
L 466 82.721966 
z
" clip-path="url(#pe7f0bcd85e)" style="fill: #8c959f; stroke-dasharray: 3,2; stroke-dashoffset: 0; stroke: #8c959f; stroke-linecap: round"/>
   </g>
   <g id="patch_4">
    <path d="M 111.6 110.16 
Q 114.66 110.16 116.601966 110.16 
" clip-path="url(#pe7f0bcd85e)" style="fill: none; stroke: #8c959f; stroke-linecap: round"/>
    <path d="M 112.601966 108.16 
L 116.601966 110.16 
L 112.601966 112.16 
z
" clip-path="url(#pe7f0bcd85e)" style="fill: #8c959f; stroke: #8c959f; stroke-linecap: round"/>
   </g>
   <g id="patch_5">
    <path d="M 129.24 110.16 
Q 131.22 110.16 132.081966 110.16 
" clip-path="url(#pe7f0bcd85e)" style="fill: none; stroke: #8c959f; stroke-linecap: round"/>
    <path d="M 128.081966 108.16 
L 132.081966 110.16 
L 128.081966 112.16 
z
" clip-path="url(#pe7f0bcd85e)" style="fill: #8c959f; stroke: #8c959f; stroke-linecap: round"/>
   </g>
   <g id="patch_6">
    <path d="M 144.72 110.16 
Q 149.04 110.16 152.241966 110.16 
" clip-path="url(#pe7f0bcd85e)" style="fill: none; stroke: #8c959f; stroke-linecap: round"/>
    <path d="M 148.241966 108.16 
L 152.241966 110.16 
L 148.241966 112.16 
z
" clip-path="url(#pe7f0bcd85e)" style="fill: #8c959f; stroke: #8c959f; stroke-linecap: round"/>
   </g>
   <g id="patch_7">
    <path d="M 244.08 110.16 
Q 247.14 110.16 249.081966 110.16 
" clip-path="url(#pe7f0bcd85e)" style="fill: none; stroke: #8c959f; stroke-linecap: round"/>
    <path d="M 245.081966 108.16 
L 249.081966 110.16 
L 245.081966 112.16 
z
" clip-path="url(#pe7f0bcd85e)" style="fill: #8c959f; stroke: #8c959f; stroke-linecap: round"/>
   </g>
   <g id="patch_8">
    <path d="M 261.72 110.16 
Q 263.7 110.16 264.561966 110.16 
" clip-path="url(#pe7f0bcd85e)" style="fill: none; stroke: #8c959f; stroke-linecap: round"/>
    <path d="M 260.561966 108.16 
L 264.561966 110.16 
L 260.561966 112.16 
z
" clip-path="url(#pe7f0bcd85e)" style="fill: #8c959f; stroke: #8c959f; stroke-linecap: round"/>
   </g>
   <g id="patch_9">
    <path d="M 277.2 110.16 
Q 281.52 110.16 284.721966 110.16 
" clip-path="url(#pe7f0bcd85e)" style="fill: none; stroke: #8c959f; stroke-linecap: round"/>
    <path d="M 280.721966 108.16 
L 284.721966 110.16 
L 280.721966 112.16 
z
" clip-path="url(#pe7f0bcd85e)" style="fill: #8c959f; stroke: #8c959f; stroke-linecap: round"/>
   </g>
   <g id="patch_10">
    <path d="M 376.56 110.16 
Q 379.08 110.16 380.481966 110.16 
" clip-path="url(#pe7f0bcd85e)" style="fill: none; stroke: #8c959f; stroke-linecap: round"/>
    <path d="M 376.481966 108.16 
L 380.481966 110.16 
L 376.481966 112.16 
z
" clip-path="url(#pe7f0bcd85e)" style="fill: #8c959f; stroke: #8c959f; stroke-linecap: round"/>
   </g>
   <g id="patch_11">
    <path d="M 393.12 110.16 
Q 397.08 110.16 399.921966 110.16 
" clip-path="url(#pe7f0bcd85e)" style="fill: none; stroke: #8c959f; stroke-linecap: round"/>
    <path d="M 395.921966 108.16 
L 399.921966 110.16 
L 395.921966 112.16 
z
" clip-path="url(#pe7f0bcd85e)" style="fill: #8c959f; stroke: #8c959f; stroke-linecap: round"/>
   </g>
   <g id="patch_12">
    <path d="M 491.76 110.16 
Q 498.96 110.16 505.041966 110.16 
" clip-path="url(#pe7f0bcd85e)" style="fill: none; stroke: #8c959f; stroke-linecap: round"/>
    <path d="M 501.041966 108.16 
L 505.041966 110.16 
L 501.041966 112.16 
z
" clip-path="url(#pe7f0bcd85e)" style="fill: #8c959f; stroke: #8c959f; stroke-linecap: round"/>
   </g>
   <g id="patch_13">
    <path d="M 596.88 110.16 
Q 599.4 110.16 600.801966 110.16 
" clip-path="url(#pe7f0bcd85e)" style="fill: none; stroke: #8c959f; stroke-linecap: round"/>
    <path d="M 596.801966 108.16 
L 600.801966 110.16 
L 596.801966 112.16 
z
" clip-path="url(#pe7f0bcd85e)" style="fill: #8c959f; stroke: #8c959f; stroke-linecap: round"/>
   </g>
   <g id="patch_14">
    <path d="M 613.44 110.16 
Q 617.4 110.16 620.241966 110.16 
" clip-path="url(#pe7f0bcd85e)" style="fill: none; stroke: #8c959f; stroke-linecap: round"/>
    <path d="M 616.241966 108.16 
L 620.241966 110.16 
L 616.241966 112.16 
z
" clip-path="url(#pe7f0bcd85e)" style="fill: #8c959f; stroke: #8c959f; stroke-linecap: round"/>
   </g>
   <g id="patch_15">
    <path d="M 712.08 110.16 
Q 719.28 110.16 725.361966 110.16 
" clip-path="url(#pe7f0bcd85e)" style="fill: none; stroke: #8c959f; stroke-linecap: round"/>
    <path d="M 721.361966 108.16 
L 725.361966 110.16 
L 721.361966 112.16 
z
" clip-path="url(#pe7f0bcd85e)" style="fill: #8c959f; stroke: #8c959f; stroke-linecap: round"/>
   </g>
   <g id="line2d_3">
    <path d="M 771.84 164.16 
L 771.84 181.44 
" clip-path="url(#pe7f0bcd85e)" style="fill: none; stroke-dasharray: 3,2; stroke-dashoffset: 0; stroke: #8c959f"/>
   </g>
   <g id="line2d_4">
    <path d="M 771.84 181.44 
L 66.24 181.44 
" clip-path="url(#pe7f0bcd85e)" style="fill: none; stroke-dasharray: 3,2; stroke-dashoffset: 0; stroke: #8c959f"/>
   </g>
   <g id="patch_16">
    <path d="M 66.24 181.44 
Q 66.24 172.08 66.24 163.838034 
" clip-path="url(#pe7f0bcd85e)" style="fill: none; stroke-dasharray: 3,2; stroke-dashoffset: 0; stroke: #8c959f; stroke-linecap: round"/>
    <path d="M 64.24 167.838034 
L 66.24 163.838034 
L 68.24 167.838034 
z
" clip-path="url(#pe7f0bcd85e)" style="fill: #8c959f; stroke-dasharray: 3,2; stroke-dashoffset: 0; stroke: #8c959f; stroke-linecap: round"/>
   </g>
   <g id="patch_17">
    <path d="M 9.36 2.16 
L 822.96 2.16 
Q 830.16 2.16 830.16 9.36 
L 830.16 425.52 
Q 830.16 432.72 822.96 432.72 
L 9.36 432.72 
Q 2.16 432.72 2.16 425.52 
L 2.16 9.36 
Q 2.16 2.16 9.36 2.16 
L 9.36 2.16 
z
" clip-path="url(#pe7f0bcd85e)" style="fill: none; stroke: #e5e7eb; stroke-linejoin: miter"/>
   </g>
   <g id="patch_18">
    <path d="M 27.36 90.72 
L 105.12 90.72 
Q 109.44 90.72 109.44 95.04 
L 109.44 125.28 
Q 109.44 129.6 105.12 129.6 
L 27.36 129.6 
Q 23.04 129.6 23.04 125.28 
L 23.04 95.04 
Q 23.04 90.72 27.36 90.72 
z
" clip-path="url(#pe7f0bcd85e)" style="fill: #ffffff; stroke: #d8dee4; stroke-linejoin: miter"/>
   </g>
   <g id="patch_19">
    <path d="M 159.84 90.72 
L 237.6 90.72 
Q 241.92 90.72 241.92 95.04 
L 241.92 125.28 
Q 241.92 129.6 237.6 129.6 
L 159.84 129.6 
Q 155.52 129.6 155.52 125.28 
L 155.52 95.04 
Q 155.52 90.72 159.84 90.72 
z
" clip-path="url(#pe7f0bcd85e)" style="fill: #ffffff; stroke: #d8dee4; stroke-linejoin: miter"/>
   </g>
   <g id="patch_20">
    <path d="M 292.32 90.72 
L 370.08 90.72 
Q 374.4 90.72 374.4 95.04 
L 374.4 125.28 
Q 374.4 129.6 370.08 129.6 
L 292.32 129.6 
Q 288 129.6 288 125.28 
L 288 95.04 
Q 288 90.72 292.32 90.72 
z
" clip-path="url(#pe7f0bcd85e)" style="fill: #ffffff; stroke: #d8dee4; stroke-linejoin: miter"/>
   </g>
   <g id="patch_21">
    <path d="M 407.52 90.72 
L 485.28 90.72 
Q 489.6 90.72 489.6 95.04 
L 489.6 125.28 
Q 489.6 129.6 485.28 129.6 
L 407.52 129.6 
Q 403.2 129.6 403.2 125.28 
L 403.2 95.04 
Q 403.2 90.72 407.52 90.72 
z
" clip-path="url(#pe7f0bcd85e)" style="fill: #ffffff; stroke: #d8dee4; stroke-linejoin: miter"/>
   </g>
   <g id="patch_22">
    <path d="M 512.64 90.72 
L 590.4 90.72 
Q 594.72 90.72 594.72 95.04 
L 594.72 125.28 
Q 594.72 129.6 590.4 129.6 
L 512.64 129.6 
Q 508.32 129.6 508.32 125.28 
L 508.32 95.04 
Q 508.32 90.72 512.64 90.72 
z
" clip-path="url(#pe7f0bcd85e)" style="fill: #ffffff; stroke: #d8dee4; stroke-linejoin: miter"/>
   </g>
   <g id="patch_23">
    <path d="M 627.84 90.72 
L 705.6 90.72 
Q 709.92 90.72 709.92 95.04 
L 709.92 125.28 
Q 709.92 129.6 705.6 129.6 
L 627.84 129.6 
Q 623.52 129.6 623.52 125.28 
L 623.52 95.04 
Q 623.52 90.72 627.84 90.72 
z
" clip-path="url(#pe7f0bcd85e)" style="fill: #ffffff; stroke: #d8dee4; stroke-linejoin: miter"/>
   </g>
   <g id="patch_24">
    <path d="M 732.96 90.72 
L 810.72 90.72 
Q 815.04 90.72 815.04 95.04 
L 815.04 125.28 
Q 815.04 129.6 810.72 129.6 
L 732.96 129.6 
Q 728.64 129.6 728.64 125.28 
L 728.64 95.04 
Q 728.64 90.72 732.96 90.72 
z
" clip-path="url(#pe7f0bcd85e)" style="fill: #ffffff; stroke: #d8dee4; stroke-linejoin: miter"/>
   </g>
   <g id="patch_25">
    <path d="M 25.92 262.08 
L 812.16 262.08 
Q 815.04 262.08 815.04 264.96 
L 815.04 264.96 
Q 815.04 267.84 812.16 267.84 
L 25.92 267.84 
Q 23.04 267.84 23.04 264.96 
L 23.04 264.96 
Q 23.04 262.08 25.92 262.08 
z
" clip-path="url(#pe7f0bcd85e)" style="fill: #eef1f5"/>
   </g>
   <g id="patch_26">
    <path d="M 25.92 262.08 
L 239.04 262.08 
Q 241.92 262.08 241.92 264.96 
L 241.92 264.96 
Q 241.92 267.84 239.04 267.84 
L 25.92 267.84 
Q 23.04 267.84 23.04 264.96 
L 23.04 264.96 
Q 23.04 262.08 25.92 262.08 
z
" clip-path="url(#pe7f0bcd85e)" style="fill: #8b5cf6"/>
   </g>
   <g id="patch_27">
    <path d="M 25.92 290.88 
L 812.16 290.88 
Q 815.04 290.88 815.04 293.76 
L 815.04 293.76 
Q 815.04 296.64 812.16 296.64 
L 25.92 296.64 
Q 23.04 296.64 23.04 293.76 
L 23.04 293.76 
Q 23.04 290.88 25.92 290.88 
z
" clip-path="url(#pe7f0bcd85e)" style="fill: #eef1f5"/>
   </g>
   <g id="patch_28">
    <path d="M 25.92 290.88 
L 812.16 290.88 
Q 815.04 290.88 815.04 293.76 
L 815.04 293.76 
Q 815.04 296.64 812.16 296.64 
L 25.92 296.64 
Q 23.04 296.64 23.04 293.76 
L 23.04 293.76 
Q 23.04 290.88 25.92 290.88 
z
" clip-path="url(#pe7f0bcd85e)" style="fill: #2563eb"/>
   </g>
   <g id="patch_29">
    <path d="M 25.92 319.68 
L 812.16 319.68 
Q 815.04 319.68 815.04 322.56 
L 815.04 322.56 
Q 815.04 325.44 812.16 325.44 
L 25.92 325.44 
Q 23.04 325.44 23.04 322.56 
L 23.04 322.56 
Q 23.04 319.68 25.92 319.68 
z
" clip-path="url(#pe7f0bcd85e)" style="fill: #eef1f5"/>
   </g>
   <g id="patch_30">
    <path d="M 25.92 319.68 
L 239.04 319.68 
Q 241.92 319.68 241.92 322.56 
L 241.92 322.56 
Q 241.92 325.44 239.04 325.44 
L 25.92 325.44 
Q 23.04 325.44 23.04 322.56 
L 23.04 322.56 
Q 23.04 319.68 25.92 319.68 
z
" clip-path="url(#pe7f0bcd85e)" style="fill: #dc2626"/>
   </g>
   <g id="patch_31">
    <path d="M 511.2 319.68 
L 591.84 319.68 
Q 594.72 319.68 594.72 322.56 
L 594.72 322.56 
Q 594.72 325.44 591.84 325.44 
L 511.2 325.44 
Q 508.32 325.44 508.32 322.56 
L 508.32 322.56 
Q 508.32 319.68 511.2 319.68 
z
" clip-path="url(#pe7f0bcd85e)" style="fill: #dc2626"/>
   </g>
   <g id="patch_32">
    <path d="M 731.52 319.68 
L 812.16 319.68 
Q 815.04 319.68 815.04 322.56 
L 815.04 322.56 
Q 815.04 325.44 812.16 325.44 
L 731.52 325.44 
Q 728.64 325.44 728.64 322.56 
L 728.64 322.56 
Q 728.64 319.68 731.52 319.68 
z
" clip-path="url(#pe7f0bcd85e)" style="fill: #dc2626"/>
   </g>
   <g id="patch_33">
    <path d="M 25.92 348.48 
L 812.16 348.48 
Q 815.04 348.48 815.04 351.36 
L 815.04 351.36 
Q 815.04 354.24 812.16 354.24 
L 25.92 354.24 
Q 23.04 354.24 23.04 351.36 
L 23.04 351.36 
Q 23.04 348.48 25.92 348.48 
z
" clip-path="url(#pe7f0bcd85e)" style="fill: #eef1f5"/>
   </g>
   <g id="patch_34">
    <path d="M 511.2 348.48 
L 812.16 348.48 
Q 815.04 348.48 815.04 351.36 
L 815.04 351.36 
Q 815.04 354.24 812.16 354.24 
L 511.2 354.24 
Q 508.32 354.24 508.32 351.36 
L 508.32 351.36 
Q 508.32 348.48 511.2 348.48 
z
" clip-path="url(#pe7f0bcd85e)" style="fill: #10b981"/>
   </g>
   <g id="patch_35">
    <path d="M 511.2 349.2 
L 591.84 349.2 
Q 594 349.2 594 351.36 
L 594 351.36 
Q 594 353.52 591.84 353.52 
L 511.2 353.52 
Q 509.04 353.52 509.04 351.36 
L 509.04 351.36 
Q 509.04 349.2 511.2 349.2 
z
" clip-path="url(#pe7f0bcd85e)" style="fill: #ffffff"/>
   </g>
   <g id="text_1">
    <text style="font-weight: 700; font-size: 12px; font-family: 'Noto Sans', 'Helvetica Neue', 'Helvetica', 'Arial', 'DejaVu Sans', sans-serif; text-anchor: start; fill: #1f2328" x="23.04" y="31.908" transform="rotate(-0 23.04 31.908)">Propel pipeline</text>
   </g>
   <g id="text_2">
    <text style="font-size: 8.6px; font-family: 'Noto Sans', 'Helvetica Neue', 'Helvetica', 'Arial', 'DejaVu Sans', sans-serif; text-anchor: start; fill: #57606a" x="298.08" y="30.5377" transform="rotate(-0 298.08 30.5377)">gate — Claude stops, you decide</text>
   </g>
   <g id="text_3">
    <text style="font-size: 8.6px; font-family: 'Noto Sans', 'Helvetica Neue', 'Helvetica', 'Arial', 'DejaVu Sans', sans-serif; text-anchor: start; fill: #57606a" x="449.28" y="30.5377" transform="rotate(-0 449.28 30.5377)">questioner — you supply references</text>
   </g>
   <g id="text_4">
    <text style="font-size: 8.6px; font-family: 'Noto Sans', 'Helvetica Neue', 'Helvetica', 'Arial', 'DejaVu Sans', sans-serif; text-anchor: start; fill: #57606a" x="616.32" y="30.5377" transform="rotate(-0 616.32 30.5377)">Codex consult (automatic)</text>
   </g>
   <g id="text_5">
    <text style="font-size: 8.4px; font-family: 'Noto Sans', 'Helvetica Neue', 'Helvetica', 'Arial', 'DejaVu Sans', sans-serif; text-anchor: end; fill: #57606a" x="423.36" y="62.1438" transform="rotate(-0 423.36 62.1438)">G3 · after each component</text>
   </g>
   <g id="text_6">
    <text style="font-size: 7.8px; font-family: 'Noto Sans', 'Helvetica Neue', 'Helvetica', 'Arial', 'DejaVu Sans', sans-serif; text-anchor: middle; fill: #8c959f" x="502.56" y="69.1221" transform="rotate(-0 502.56 69.1221)">runtime error</text>
   </g>
   <g id="text_7">
    <text style="font-weight: 700; font-size: 10px; font-family: 'Noto Sans', 'Helvetica Neue', 'Helvetica', 'Arial', 'DejaVu Sans', sans-serif; text-anchor: middle; fill: #1f2328" x="66.24" y="113.95" transform="rotate(-0 66.24 113.95)">Intake</text>
   </g>
   <g id="text_8">
    <text style="font-size: 8px; font-family: 'Noto Sans', 'Helvetica Neue', 'Helvetica', 'Arial', 'DejaVu Sans', sans-serif; text-anchor: middle; fill: #57606a" x="66.24" y="146.956" transform="rotate(-0 66.24 146.956)">scoping questions</text>
   </g>
   <g id="text_9">
    <text style="font-weight: 700; font-size: 10px; font-family: 'Noto Sans', 'Helvetica Neue', 'Helvetica', 'Arial', 'DejaVu Sans', sans-serif; text-anchor: middle; fill: #1f2328" x="198.72" y="113.95" transform="rotate(-0 198.72 113.95)">Investigate</text>
   </g>
   <g id="text_10">
    <text style="font-size: 8px; font-family: 'Noto Sans', 'Helvetica Neue', 'Helvetica', 'Arial', 'DejaVu Sans', sans-serif; text-anchor: middle; fill: #57606a" x="198.72" y="146.956" transform="rotate(-0 198.72 146.956)">trace code, read docs</text>
   </g>
   <g id="text_11">
    <text style="font-size: 7.8px; font-family: 'Noto Sans', 'Helvetica Neue', 'Helvetica', 'Arial', 'DejaVu Sans', sans-serif; text-anchor: middle; fill: #8c959f" x="198.72" y="158.4021" transform="rotate(-0 198.72 158.4021)">scratch/ README</text>
   </g>
   <g id="text_12">
    <text style="font-weight: 700; font-size: 10px; font-family: 'Noto Sans', 'Helvetica Neue', 'Helvetica', 'Arial', 'DejaVu Sans', sans-serif; text-anchor: middle; fill: #1f2328" x="331.2" y="113.95" transform="rotate(-0 331.2 113.95)">Design &amp; plan</text>
   </g>
   <g id="text_13">
    <text style="font-size: 8px; font-family: 'Noto Sans', 'Helvetica Neue', 'Helvetica', 'Arial', 'DejaVu Sans', sans-serif; text-anchor: middle; fill: #57606a" x="331.2" y="146.956" transform="rotate(-0 331.2 146.956)">paper to code map</text>
   </g>
   <g id="text_14">
    <text style="font-size: 7.8px; font-family: 'Noto Sans', 'Helvetica Neue', 'Helvetica', 'Arial', 'DejaVu Sans', sans-serif; text-anchor: middle; fill: #8c959f" x="331.2" y="158.4021" transform="rotate(-0 331.2 158.4021)">regression risk</text>
   </g>
   <g id="text_15">
    <text style="font-weight: 700; font-size: 10px; font-family: 'Noto Sans', 'Helvetica Neue', 'Helvetica', 'Arial', 'DejaVu Sans', sans-serif; text-anchor: middle; fill: #1f2328" x="446.4" y="113.95" transform="rotate(-0 446.4 113.95)">Implement</text>
   </g>
   <g id="text_16">
    <text style="font-size: 8px; font-family: 'Noto Sans', 'Helvetica Neue', 'Helvetica', 'Arial', 'DejaVu Sans', sans-serif; text-anchor: middle; fill: #57606a" x="446.4" y="146.956" transform="rotate(-0 446.4 146.956)">per component</text>
   </g>
   <g id="text_17">
    <text style="font-size: 7.8px; font-family: 'Noto Sans', 'Helvetica Neue', 'Helvetica', 'Arial', 'DejaVu Sans', sans-serif; text-anchor: middle; fill: #8c959f" x="446.4" y="158.4021" transform="rotate(-0 446.4 158.4021)">auditors</text>
   </g>
   <g id="text_18">
    <text style="font-weight: 700; font-size: 10px; font-family: 'Noto Sans', 'Helvetica Neue', 'Helvetica', 'Arial', 'DejaVu Sans', sans-serif; text-anchor: middle; fill: #1f2328" x="551.52" y="113.95" transform="rotate(-0 551.52 113.95)">Debug</text>
   </g>
   <g id="text_19">
    <text style="font-size: 8px; font-family: 'Noto Sans', 'Helvetica Neue', 'Helvetica', 'Arial', 'DejaVu Sans', sans-serif; text-anchor: middle; fill: #57606a" x="551.52" y="146.956" transform="rotate(-0 551.52 146.956)">root cause first</text>
   </g>
   <g id="text_20">
    <text style="font-size: 7.8px; font-family: 'Noto Sans', 'Helvetica Neue', 'Helvetica', 'Arial', 'DejaVu Sans', sans-serif; text-anchor: middle; fill: #8c959f" x="551.52" y="158.4021" transform="rotate(-0 551.52 158.4021)">3-strike limit</text>
   </g>
   <g id="text_21">
    <text style="font-weight: 700; font-size: 10px; font-family: 'Noto Sans', 'Helvetica Neue', 'Helvetica', 'Arial', 'DejaVu Sans', sans-serif; text-anchor: middle; fill: #1f2328" x="666.72" y="113.95" transform="rotate(-0 666.72 113.95)">Train</text>
   </g>
   <g id="text_22">
    <text style="font-size: 8px; font-family: 'Noto Sans', 'Helvetica Neue', 'Helvetica', 'Arial', 'DejaVu Sans', sans-serif; text-anchor: middle; fill: #57606a" x="666.72" y="146.956" transform="rotate(-0 666.72 146.956)">launch, watch</text>
   </g>
   <g id="text_23">
    <text style="font-size: 7.8px; font-family: 'Noto Sans', 'Helvetica Neue', 'Helvetica', 'Arial', 'DejaVu Sans', sans-serif; text-anchor: middle; fill: #8c959f" x="666.72" y="158.4021" transform="rotate(-0 666.72 158.4021)">/monitor</text>
   </g>
   <g id="text_24">
    <text style="font-weight: 700; font-size: 10px; font-family: 'Noto Sans', 'Helvetica Neue', 'Helvetica', 'Arial', 'DejaVu Sans', sans-serif; text-anchor: middle; fill: #1f2328" x="771.84" y="113.95" transform="rotate(-0 771.84 113.95)">Retrospective</text>
   </g>
   <g id="text_25">
    <text style="font-size: 8px; font-family: 'Noto Sans', 'Helvetica Neue', 'Helvetica', 'Arial', 'DejaVu Sans', sans-serif; text-anchor: middle; fill: #57606a" x="771.84" y="146.956" transform="rotate(-0 771.84 146.956)">what failed, why</text>
   </g>
   <g id="text_26">
    <text style="font-size: 7.8px; font-family: 'Noto Sans', 'Helvetica Neue', 'Helvetica', 'Arial', 'DejaVu Sans', sans-serif; text-anchor: middle; fill: #8c959f" x="771.84" y="158.4021" transform="rotate(-0 771.84 158.4021)">registry</text>
   </g>
   <g id="text_27">
    <text style="font-weight: 700; font-size: 7.8px; font-family: 'Noto Sans', 'Helvetica Neue', 'Helvetica', 'Arial', 'DejaVu Sans', sans-serif; text-anchor: middle; fill: #2563eb" x="123.48" y="83.5962" transform="rotate(-0 123.48 83.5962)">G0</text>
   </g>
   <g id="text_28">
    <text style="font-weight: 700; font-size: 7.8px; font-family: 'Noto Sans', 'Helvetica Neue', 'Helvetica', 'Arial', 'DejaVu Sans', sans-serif; text-anchor: middle; fill: #2563eb" x="255.96" y="83.5962" transform="rotate(-0 255.96 83.5962)">G1</text>
   </g>
   <g id="text_29">
    <text style="font-weight: 700; font-size: 7.8px; font-family: 'Noto Sans', 'Helvetica Neue', 'Helvetica', 'Arial', 'DejaVu Sans', sans-serif; text-anchor: middle; fill: #2563eb" x="387.36" y="83.5962" transform="rotate(-0 387.36 83.5962)">G2</text>
   </g>
   <g id="text_30">
    <text style="font-weight: 700; font-size: 7.8px; font-family: 'Noto Sans', 'Helvetica Neue', 'Helvetica', 'Arial', 'DejaVu Sans', sans-serif; text-anchor: middle; fill: #2563eb" x="607.68" y="83.5962" transform="rotate(-0 607.68 83.5962)">G4</text>
   </g>
   <g id="text_31">
    <text style="font-weight: 700; font-size: 7.8px; font-family: 'Noto Sans', 'Helvetica Neue', 'Helvetica', 'Arial', 'DejaVu Sans', sans-serif; text-anchor: middle; fill: #2563eb" x="138.96" y="83.5962" transform="rotate(-0 138.96 83.5962)">Q0</text>
   </g>
   <g id="text_32">
    <text style="font-weight: 700; font-size: 7.8px; font-family: 'Noto Sans', 'Helvetica Neue', 'Helvetica', 'Arial', 'DejaVu Sans', sans-serif; text-anchor: middle; fill: #2563eb" x="271.44" y="83.5962" transform="rotate(-0 271.44 83.5962)">Q1</text>
   </g>
   <g id="text_33">
    <text style="font-size: 8.2px; font-family: 'Noto Sans', 'Helvetica Neue', 'Helvetica', 'Arial', 'DejaVu Sans', sans-serif; text-anchor: middle; fill: #57606a" x="416.16" y="203.1899" transform="rotate(-0 416.16 203.1899)">next session: hooks re-inject past experiments and designs, so Claude checks what was already tried</text>
   </g>
   <g id="text_34">
    <text style="font-weight: 700; font-size: 9.6px; font-family: 'Noto Sans', 'Helvetica Neue', 'Helvetica', 'Arial', 'DejaVu Sans', sans-serif; text-anchor: start; fill: #1f2328" x="23.04" y="236.9184" transform="rotate(-0 23.04 236.9184)">Stages each mode runs</text>
   </g>
   <g id="text_35">
    <text style="font-weight: 700; font-size: 8.4px; font-family: 'Noto Sans', 'Helvetica Neue', 'Helvetica', 'Arial', 'DejaVu Sans', sans-serif; text-anchor: start; fill: #8b5cf6" x="23.04" y="257.3436" transform="rotate(-0 23.04 257.3436)">Researcher</text>
   </g>
   <g id="text_36">
    <text style="font-weight: 700; font-size: 8.4px; font-family: 'Noto Sans', 'Helvetica Neue', 'Helvetica', 'Arial', 'DejaVu Sans', sans-serif; text-anchor: start; fill: #2563eb" x="23.04" y="286.1436" transform="rotate(-0 23.04 286.1436)">Engineer</text>
   </g>
   <g id="text_37">
    <text style="font-weight: 700; font-size: 8.4px; font-family: 'Noto Sans', 'Helvetica Neue', 'Helvetica', 'Arial', 'DejaVu Sans', sans-serif; text-anchor: start; fill: #dc2626" x="23.04" y="314.9436" transform="rotate(-0 23.04 314.9436)">Debugger</text>
   </g>
   <g id="text_38">
    <text style="font-weight: 700; font-size: 8.4px; font-family: 'Noto Sans', 'Helvetica Neue', 'Helvetica', 'Arial', 'DejaVu Sans', sans-serif; text-anchor: start; fill: #10b981" x="23.04" y="343.7436" transform="rotate(-0 23.04 343.7436)">Trainer</text>
   </g>
   <g id="text_39">
    <text style="font-size: 7.6px; font-family: 'Noto Sans', 'Helvetica Neue', 'Helvetica', 'Arial', 'DejaVu Sans', sans-serif; text-anchor: end; fill: #8c959f" x="815.04" y="343.3682" transform="rotate(-0 815.04 343.3682)">hollow = partial coverage (runtime bugs only)</text>
   </g>
   <g id="text_40">
    <text style="font-size: 8.2px; font-family: 'Noto Sans', 'Helvetica Neue', 'Helvetica', 'Arial', 'DejaVu Sans', sans-serif; text-anchor: start; fill: #57606a" x="23.04" y="387.5099" transform="rotate(-0 23.04 387.5099)">Auditors (paper alignment, silent bugs, JAX logic, regressions) check every change as read-only subagents and report at G3.</text>
   </g>
   <g id="text_41">
    <text style="font-size: 8.2px; font-family: 'Noto Sans', 'Helvetica Neue', 'Helvetica', 'Arial', 'DejaVu Sans', sans-serif; text-anchor: start; fill: #57606a" x="23.04" y="401.9099" transform="rotate(-0 23.04 401.9099)">Codex is consulted automatically at every gate, announced each time, and every claim it makes is verified against your code first.</text>
   </g>
   <g id="text_42">
    <text style="font-size: 8.2px; font-family: 'Noto Sans', 'Helvetica Neue', 'Helvetica', 'Arial', 'DejaVu Sans', sans-serif; text-anchor: start; fill: #2563eb" x="23.04" y="416.3099" transform="rotate(-0 23.04 416.3099)">Everything here is machine work — except the filled diamonds. Those are decisions only you can make, and nothing moves past them without you.</text>
   </g>
   <g id="patch_36">
    <path d="M 289.44 23.04 
L 293.76 27.36 
L 289.44 31.68 
L 285.12 27.36 
z
" clip-path="url(#pe7f0bcd85e)" style="fill: #2563eb; stroke: #2563eb; stroke-width: 1.4; stroke-linejoin: miter"/>
   </g>
   <g id="patch_37">
    <path d="M 440.64 23.04 
L 444.96 27.36 
L 440.64 31.68 
L 436.32 27.36 
z
" clip-path="url(#pe7f0bcd85e)" style="fill: #ffffff; stroke: #2563eb; stroke-width: 1.4; stroke-linejoin: miter"/>
   </g>
   <g id="patch_38">
    <path d="M 607.68 23.4 
C 608.730204 23.4 609.737536 23.817251 610.480143 24.559857 
C 611.222749 25.302464 611.64 26.309796 611.64 27.36 
C 611.64 28.410204 611.222749 29.417536 610.480143 30.160143 
C 609.737536 30.902749 608.730204 31.32 607.68 31.32 
C 606.629796 31.32 605.622464 30.902749 604.879857 30.160143 
C 604.137251 29.417536 603.72 28.410204 603.72 27.36 
C 603.72 26.309796 604.137251 25.302464 604.879857 24.559857 
C 605.622464 23.817251 606.629796 23.4 607.68 23.4 
z
" clip-path="url(#pe7f0bcd85e)" style="fill: #f5f3ff; stroke: #8b5cf6; stroke-width: 1.3; stroke-linejoin: miter"/>
   </g>
   <g id="patch_39">
    <path d="M 433.44 55.44 
C 434.394731 55.44 435.310488 55.819319 435.985584 56.494416 
C 436.660681 57.169512 437.04 58.085269 437.04 59.04 
C 437.04 59.994731 436.660681 60.910488 435.985584 61.585584 
C 435.310488 62.260681 434.394731 62.64 433.44 62.64 
C 432.485269 62.64 431.569512 62.260681 430.894416 61.585584 
C 430.219319 60.910488 429.84 59.994731 429.84 59.04 
C 429.84 58.085269 430.219319 57.169512 430.894416 56.494416 
C 431.569512 55.819319 432.485269 55.44 433.44 55.44 
z
" clip-path="url(#pe7f0bcd85e)" style="fill: #f5f3ff; stroke: #8b5cf6; stroke-width: 1.3; stroke-linejoin: miter"/>
   </g>
   <g id="patch_40">
    <path d="M 449.28 54 
L 454.32 59.04 
L 449.28 64.08 
L 444.24 59.04 
z
" clip-path="url(#pe7f0bcd85e)" style="fill: #2563eb; stroke: #2563eb; stroke-width: 1.4; stroke-linejoin: miter"/>
   </g>
   <g id="patch_41">
    <path d="M 123.48 105.12 
L 128.52 110.16 
L 123.48 115.2 
L 118.44 110.16 
z
" clip-path="url(#pe7f0bcd85e)" style="fill: #2563eb; stroke: #2563eb; stroke-width: 1.4; stroke-linejoin: miter"/>
   </g>
   <g id="patch_42">
    <path d="M 123.48 124.56 
C 124.434731 124.56 125.350488 124.939319 126.025584 125.614416 
C 126.700681 126.289512 127.08 127.205269 127.08 128.16 
C 127.08 129.114731 126.700681 130.030488 126.025584 130.705584 
C 125.350488 131.380681 124.434731 131.76 123.48 131.76 
C 122.525269 131.76 121.609512 131.380681 120.934416 130.705584 
C 120.259319 130.030488 119.88 129.114731 119.88 128.16 
C 119.88 127.205269 120.259319 126.289512 120.934416 125.614416 
C 121.609512 124.939319 122.525269 124.56 123.48 124.56 
z
" clip-path="url(#pe7f0bcd85e)" style="fill: #f5f3ff; stroke: #8b5cf6; stroke-width: 1.3; stroke-linejoin: miter"/>
   </g>
   <g id="patch_43">
    <path d="M 255.96 105.12 
L 261 110.16 
L 255.96 115.2 
L 250.92 110.16 
z
" clip-path="url(#pe7f0bcd85e)" style="fill: #2563eb; stroke: #2563eb; stroke-width: 1.4; stroke-linejoin: miter"/>
   </g>
   <g id="patch_44">
    <path d="M 255.96 124.56 
C 256.914731 124.56 257.830488 124.939319 258.505584 125.614416 
C 259.180681 126.289512 259.56 127.205269 259.56 128.16 
C 259.56 129.114731 259.180681 130.030488 258.505584 130.705584 
C 257.830488 131.380681 256.914731 131.76 255.96 131.76 
C 255.005269 131.76 254.089512 131.380681 253.414416 130.705584 
C 252.739319 130.030488 252.36 129.114731 252.36 128.16 
C 252.36 127.205269 252.739319 126.289512 253.414416 125.614416 
C 254.089512 124.939319 255.005269 124.56 255.96 124.56 
z
" clip-path="url(#pe7f0bcd85e)" style="fill: #f5f3ff; stroke: #8b5cf6; stroke-width: 1.3; stroke-linejoin: miter"/>
   </g>
   <g id="patch_45">
    <path d="M 387.36 105.12 
L 392.4 110.16 
L 387.36 115.2 
L 382.32 110.16 
z
" clip-path="url(#pe7f0bcd85e)" style="fill: #2563eb; stroke: #2563eb; stroke-width: 1.4; stroke-linejoin: miter"/>
   </g>
   <g id="patch_46">
    <path d="M 387.36 124.56 
C 388.314731 124.56 389.230488 124.939319 389.905584 125.614416 
C 390.580681 126.289512 390.96 127.205269 390.96 128.16 
C 390.96 129.114731 390.580681 130.030488 389.905584 130.705584 
C 389.230488 131.380681 388.314731 131.76 387.36 131.76 
C 386.405269 131.76 385.489512 131.380681 384.814416 130.705584 
C 384.139319 130.030488 383.76 129.114731 383.76 128.16 
C 383.76 127.205269 384.139319 126.289512 384.814416 125.614416 
C 385.489512 124.939319 386.405269 124.56 387.36 124.56 
z
" clip-path="url(#pe7f0bcd85e)" style="fill: #f5f3ff; stroke: #8b5cf6; stroke-width: 1.3; stroke-linejoin: miter"/>
   </g>
   <g id="patch_47">
    <path d="M 607.68 105.12 
L 612.72 110.16 
L 607.68 115.2 
L 602.64 110.16 
z
" clip-path="url(#pe7f0bcd85e)" style="fill: #2563eb; stroke: #2563eb; stroke-width: 1.4; stroke-linejoin: miter"/>
   </g>
   <g id="patch_48">
    <path d="M 607.68 124.56 
C 608.634731 124.56 609.550488 124.939319 610.225584 125.614416 
C 610.900681 126.289512 611.28 127.205269 611.28 128.16 
C 611.28 129.114731 610.900681 130.030488 610.225584 130.705584 
C 609.550488 131.380681 608.634731 131.76 607.68 131.76 
C 606.725269 131.76 605.809512 131.380681 605.134416 130.705584 
C 604.459319 130.030488 604.08 129.114731 604.08 128.16 
C 604.08 127.205269 604.459319 126.289512 605.134416 125.614416 
C 605.809512 124.939319 606.725269 124.56 607.68 124.56 
z
" clip-path="url(#pe7f0bcd85e)" style="fill: #f5f3ff; stroke: #8b5cf6; stroke-width: 1.3; stroke-linejoin: miter"/>
   </g>
   <g id="patch_49">
    <path d="M 138.96 105.12 
L 144 110.16 
L 138.96 115.2 
L 133.92 110.16 
z
" clip-path="url(#pe7f0bcd85e)" style="fill: #ffffff; stroke: #2563eb; stroke-width: 1.4; stroke-linejoin: miter"/>
   </g>
   <g id="patch_50">
    <path d="M 271.44 105.12 
L 276.48 110.16 
L 271.44 115.2 
L 266.4 110.16 
z
" clip-path="url(#pe7f0bcd85e)" style="fill: #ffffff; stroke: #2563eb; stroke-width: 1.4; stroke-linejoin: miter"/>
   </g>
  </g>
 </g>
 <defs>
  <clipPath id="pe7f0bcd85e">
   <rect x="1.44" y="1.44" width="829.44" height="432"/>
  </clipPath>
 </defs>
</svg>
